<svg width="222" height="79" viewBox="0 0 222 79" fill="none" xmlns="http://www.w3.org/2000/svg">
<path d="M93.3878 50.884L89.0784 43.3963H86.7351V50.884H83.6646V32.1648H90.1288C91.5653 32.1648 92.7773 32.4162 93.7649 32.9189C94.7705 33.4217 95.5156 34.0951 96.0005 34.939C96.5032 35.7829 96.7546 36.7256 96.7546 37.7671C96.7546 38.9881 96.3955 40.1014 95.6772 41.1069C94.977 42.0945 93.8906 42.7679 92.4182 43.127L97.0509 50.884H93.3878ZM86.7351 40.9453H90.1288C91.278 40.9453 92.1399 40.658 92.7145 40.0834C93.307 39.5088 93.6033 38.7367 93.6033 37.7671C93.6033 36.7975 93.316 36.0433 92.7414 35.5046C92.1668 34.948 91.2959 34.6697 90.1288 34.6697H86.7351V40.9453ZM99.6591 43.3963C99.6591 41.906 99.9643 40.5862 100.575 39.437C101.203 38.2878 102.047 37.399 103.107 36.7705C104.184 36.1241 105.369 35.8009 106.662 35.8009C107.829 35.8009 108.844 36.0343 109.706 36.5012C110.585 36.9501 111.286 37.5157 111.806 38.198V36.0433H114.904V50.884H111.806V48.6754C111.286 49.3757 110.576 49.9593 109.679 50.4262C108.781 50.893 107.757 51.1264 106.608 51.1264C105.333 51.1264 104.166 50.8032 103.107 50.1568C102.047 49.4924 101.203 48.5767 100.575 47.4095C99.9643 46.2244 99.6591 44.8867 99.6591 43.3963ZM111.806 43.4502C111.806 42.4267 111.591 41.5379 111.16 40.7837C110.747 40.0296 110.199 39.455 109.517 39.0599C108.835 38.6649 108.098 38.4674 107.308 38.4674C106.518 38.4674 105.782 38.6649 105.1 39.0599C104.417 39.437 103.861 40.0026 103.43 40.7568C103.017 41.493 102.81 42.3728 102.81 43.3963C102.81 44.4198 103.017 45.3176 103.43 46.0897C103.861 46.8619 104.417 47.4544 105.1 47.8674C105.8 48.2624 106.536 48.46 107.308 48.46C108.098 48.46 108.835 48.2624 109.517 47.8674C110.199 47.4724 110.747 46.8978 111.16 46.1436C111.591 45.3715 111.806 44.4737 111.806 43.4502ZM124.916 35.8009C126.065 35.8009 127.08 36.0343 127.96 36.5012C128.858 36.9501 129.558 37.5157 130.061 38.198V36.0433H133.158V51.1264C133.158 52.4911 132.871 53.7031 132.296 54.7626C131.722 55.8399 130.887 56.6839 129.791 57.2944C128.714 57.9049 127.421 58.2101 125.913 58.2101C123.902 58.2101 122.232 57.7343 120.903 56.7826C119.574 55.8489 118.82 54.574 118.641 52.958H121.684C121.918 53.7301 122.411 54.3496 123.165 54.8164C123.938 55.3012 124.853 55.5436 125.913 55.5436C127.152 55.5436 128.148 55.1666 128.902 54.4124C129.675 53.6583 130.061 52.5629 130.061 51.1264V48.6485C129.54 49.3488 128.831 49.9413 127.933 50.4262C127.053 50.893 126.047 51.1264 124.916 51.1264C123.623 51.1264 122.438 50.8032 121.361 50.1568C120.301 49.4924 119.458 48.5767 118.829 47.4095C118.219 46.2244 117.913 44.8867 117.913 43.3963C117.913 41.906 118.219 40.5862 118.829 39.437C119.458 38.2878 120.301 37.399 121.361 36.7705C122.438 36.1241 123.623 35.8009 124.916 35.8009ZM130.061 43.4502C130.061 42.4267 129.845 41.5379 129.414 40.7837C129.001 40.0296 128.454 39.455 127.771 39.0599C127.089 38.6649 126.353 38.4674 125.563 38.4674C124.773 38.4674 124.036 38.6649 123.354 39.0599C122.672 39.437 122.115 40.0026 121.684 40.7568C121.271 41.493 121.065 42.3728 121.065 43.3963C121.065 44.4198 121.271 45.3176 121.684 46.0897C122.115 46.8619 122.672 47.4544 123.354 47.8674C124.054 48.2624 124.79 48.46 125.563 48.46C126.353 48.46 127.089 48.2624 127.771 47.8674C128.454 47.4724 129.001 46.8978 129.414 46.1436C129.845 45.3715 130.061 44.4737 130.061 43.4502ZM136.168 43.3963C136.168 41.906 136.473 40.5862 137.083 39.437C137.712 38.2878 138.556 37.399 139.615 36.7705C140.692 36.1241 141.878 35.8009 143.17 35.8009C144.338 35.8009 145.352 36.0343 146.214 36.5012C147.094 36.9501 147.794 37.5157 148.315 38.198V36.0433H151.412V50.884H148.315V48.6754C147.794 49.3757 147.085 49.9593 146.187 50.4262C145.289 50.893 144.266 51.1264 143.117 51.1264C141.842 51.1264 140.675 50.8032 139.615 50.1568C138.556 49.4924 137.712 48.5767 137.083 47.4095C136.473 46.2244 136.168 44.8867 136.168 43.3963ZM148.315 43.4502C148.315 42.4267 148.099 41.5379 147.668 40.7837C147.255 40.0296 146.708 39.455 146.025 39.0599C145.343 38.6649 144.607 38.4674 143.817 38.4674C143.027 38.4674 142.291 38.6649 141.608 39.0599C140.926 39.437 140.369 40.0026 139.938 40.7568C139.525 41.493 139.319 42.3728 139.319 43.3963C139.319 44.4198 139.525 45.3176 139.938 46.0897C140.369 46.8619 140.926 47.4544 141.608 47.8674C142.309 48.2624 143.045 48.46 143.817 48.46C144.607 48.46 145.343 48.2624 146.025 47.8674C146.708 47.4724 147.255 46.8978 147.668 46.1436C148.099 45.3715 148.315 44.4737 148.315 43.4502Z" fill="url(#paint0_linear_2693_65595)"/>
<path d="M167.305 47.0594H159.468L158.121 50.884H154.916L161.622 32.1378H165.178L171.884 50.884H168.652L167.305 47.0594ZM166.444 44.5545L163.4 35.8548L160.33 44.5545H166.444ZM177.871 32.1648V50.884H174.8V32.1648H177.871Z" fill="url(#paint1_linear_2693_65595)"/>
<g clip-path="url(#clip0_2693_65595)">
<path opacity="0.85" d="M22.7227 34.4523C22.7227 34.4523 40.5623 50.8991 58.837 29.8136C66.4843 20.99 73.2102 35.2605 73.2102 35.2605L74.0659 62.2852H22.7227V34.4523Z" fill="url(#paint2_linear_2693_65595)"/>
<path opacity="0.75" d="M25.5377 36.8079C25.5377 36.8079 34.914 19.3721 42.7753 27.0492C63.1381 46.9349 74.7035 33.3698 74.7035 33.3698L71.9131 60.8471L22.7255 54.6519L25.5377 36.8079Z" fill="url(#paint3_linear_2693_65595)"/>
</g>
<defs>
<linearGradient id="paint0_linear_2693_65595" x1="115.527" y1="25.634" x2="151.419" y2="109.661" gradientUnits="userSpaceOnUse">
<stop stop-color="white"/>
<stop offset="1" stop-color="white"/>
</linearGradient>
<linearGradient id="paint1_linear_2693_65595" x1="164.833" y1="28.134" x2="223.987" y2="60.3942" gradientUnits="userSpaceOnUse">
<stop stop-color="white"/>
<stop offset="1" stop-color="white"/>
</linearGradient>
<linearGradient id="paint2_linear_2693_65595" x1="70.6992" y1="29.4592" x2="53.1065" y2="57.1344" gradientUnits="userSpaceOnUse">
<stop stop-color="#0500FF" stop-opacity="0.88"/>
<stop offset="1" stop-color="#0046FB" stop-opacity="0.65"/>
</linearGradient>
<linearGradient id="paint3_linear_2693_65595" x1="45.0305" y1="30.3009" x2="59.5395" y2="55.8589" gradientUnits="userSpaceOnUse">
<stop stop-color="#0085FF" stop-opacity="0.93"/>
<stop offset="0.998566" stop-color="#0009DB" stop-opacity="0.9"/>
</linearGradient>
<clipPath id="clip0_2693_65595">
<rect x="25.25" y="8.41687" width="47.9339" height="47.9339" rx="23.9669" fill="white"/>
</clipPath>
</defs>
</svg>
